<?xml version="1.0" standalone="no"?>
<!DOCTYPE svg PUBLIC "-//W3C//DTD SVG 20010904//EN"
 "http://www.w3.org/TR/2001/REC-SVG-20010904/DTD/svg10.dtd">
<svg version="1.0" xmlns="http://www.w3.org/2000/svg"
 width="1280.000000pt" height="1180.000000pt" viewBox="0 0 1280.000000 1180.000000"
 preserveAspectRatio="xMidYMid meet">
<g transform="translate(0.000000,1180.000000) scale(0.100000,-0.100000)"
fill="#000000" stroke="none">
<path d="M4120 11789 c-52 -5 -167 -16 -255 -25 -1319 -132 -2501 -823 -3212
-1879 -338 -502 -547 -1064 -617 -1665 -38 -322 -41 -407 -22 -623 27 -311 51
-469 107 -692 240 -958 866 -1810 1748 -2379 582 -376 1234 -604 1976 -693
214 -25 776 -25 990 0 896 107 1667 420 2325 945 773 617 1288 1455 1449 2362
45 250 55 366 55 645 1 275 -7 383 -45 615 -118 724 -463 1418 -984 1980 -722
780 -1732 1275 -2820 1384 -383 38 -498 42 -695 25z m440 -1179 c903 -69 1696
-472 2237 -1140 542 -669 731 -1542 508 -2355 -264 -963 -1072 -1737 -2105
-2019 -432 -117 -894 -145 -1340 -80 -889 129 -1693 636 -2155 1360 -215 336
-349 704 -406 1114 -19 136 -17 515 4 653 119 784 536 1440 1212 1913 577 402
1335 607 2045 554z"/>
<path d="M8472 5028 c-294 -397 -726 -794 -1145 -1053 -43 -26 -77 -51 -75
-55 2 -4 469 -436 1038 -961 569 -525 1522 -1403 2118 -1952 959 -884 1085
-997 1100 -985 33 26 1282 1179 1282 1183 0 3 -4085 3770 -4227 3897 l-21 20
-70 -94z"/>
</g>
</svg>
